# xmcd CD database file
#
# Track frame offsets:
#	150
#	14396
#	29052
#	44482
#	62097
#	75569
#	86993
#	101785
#	116122
#	130027
#
# Disc length: 1922 seconds
#
# Revision: 0
# Processed by: cddbd v1.5.2PL0 Copyright (c) Steve Scherf et al.
# Submitted via: CDex 1.51
#
DISCID=8907800a
DTITLE=Liam Fitzgerald and The Rainieros - Last Call!
DYEAR=2012
DGENRE=Country
TTITLE0=What Would You Do
TTITLE1=I'm Always Gonna Be In Love With You
TTITLE2=Let's Go Out Tonight
TTITLE3=Last Call!
TTITLE4=You Can Call Me Crazy (Anytime)
TTITLE5=I Don't Know Why
TTITLE6=Long Gone Goodbye
TTITLE7=The Rambler
TTITLE8=Honky Tonk Hard Times
TTITLE9=Family Ballad
EXTD=YEAR: 2012
EXTT0=
EXTT1=
EXTT2=
EXTT3=
EXTT4=
EXTT5=
EXTT6=
EXTT7=
EXTT8=
EXTT9=
PLAYORDER=
